<svg xmlns="http://www.w3.org/2000/svg" viewBox="0 0 612 274">
  <path fill="#679436" d="M 98.007 146.077 C 98.351 153.306 102.826 155.629 109.624 155.629 C 114.444 155.629 119.435 153.908 119.435 149.347 C 119.435 143.925 110.657 142.893 101.793 140.398 C 93.015 137.901 83.808 133.942 83.808 122.669 C 83.808 109.244 97.318 103.994 108.850 103.994 C 121.070 103.994 133.377 109.933 133.463 123.787 L 117.456 123.787 C 117.714 118.193 112.464 116.387 107.559 116.387 C 104.117 116.387 99.814 117.592 99.814 121.637 C 99.814 126.370 108.678 127.230 117.628 129.726 C 126.492 132.221 135.442 136.351 135.442 147.454 C 135.442 163.029 122.189 168.022 108.678 168.022 C 94.564 168.022 82.086 161.826 82.000 146.077 Z"/>
  <path fill="#679436" d="M 154.280 143.925 C 154.280 151.756 156.518 156.833 163.145 156.833 C 169.685 156.833 171.923 150.036 171.923 143.925 C 171.923 138.247 169.685 131.964 163.230 131.964 C 159.273 131.964 154.280 134.717 154.280 143.925 M 140.166 122.067 L 154.108 122.067 L 154.108 127.231 L 154.280 127.231 C 157.122 123.012 161.424 120.776 166.588 120.776 C 180.614 120.776 186.552 132.825 186.552 145.389 C 186.552 157.007 180.357 168.023 167.706 168.023 C 162.197 168.023 157.981 165.957 154.970 161.912 L 154.798 161.912 L 154.798 181.704 L 140.166 181.704 Z"/>
  <path fill="#679436" d="M 189.700 122.066 L 203.899 122.066 L 203.899 129.897 L 204.071 129.897 C 206.223 124.218 211.214 121.206 217.496 121.206 C 218.615 121.206 219.820 121.292 220.939 121.552 L 220.939 134.891 C 219.045 134.374 217.324 134.028 215.345 134.028 C 208.116 134.028 204.330 139.021 204.330 144.615 L 204.330 166.731 L 189.700 166.731 Z"/>
  <path fill="#679436" d="M 244.433 156.834 C 251.231 156.834 253.382 150.122 253.382 144.443 C 253.382 138.761 251.231 131.963 244.433 131.963 C 237.634 131.963 235.569 138.761 235.569 144.443 C 235.569 150.122 237.634 156.834 244.433 156.834 M 244.433 120.777 C 258.288 120.777 268.013 131.018 268.013 144.443 C 268.013 157.868 258.288 168.023 244.433 168.023 C 230.578 168.023 220.939 157.868 220.939 144.443 C 220.939 131.018 230.578 120.777 244.433 120.777"/>
  <path fill="#679436" d="M 316.144 166.731 L 301.945 166.731 L 301.945 160.621 L 301.773 160.621 C 299.018 165.182 293.339 168.022 288.175 168.022 C 275.353 168.022 271.652 160.621 271.652 148.916 L 271.652 122.067 L 286.282 122.067 L 286.282 147.970 C 286.282 153.909 288.864 155.973 293.510 155.973 C 296.695 155.973 301.514 153.909 301.514 145.992 L 301.514 122.067 L 316.144 122.067 Z"/>
  <path fill="#679436" d="M 376.438 98.775 C 366.642 89.897 341.378 88.346 334.419 105.690 C 338.177 103.056 349.037 97.259 359.159 99.391 C 341.985 101.732 333.765 111.459 333.765 111.459 C 333.765 111.459 323.526 103.335 305.338 105.756 C 316.951 100.201 328.809 104.378 332.366 106.132 C 329.911 100.726 322.103 96.901 314.978 96.624 C 305.573 96.257 297.355 101.141 292.278 110.137 C 302.965 117.907 315.184 120.674 327.338 115.921 L 327.338 151.413 C 327.338 163.546 330.523 167.162 343.001 167.162 C 345.668 167.162 348.335 166.816 351.004 166.730 L 351.004 155.973 C 349.713 155.973 348.421 156.146 347.217 156.146 C 344.033 156.146 341.967 155.372 341.967 151.842 L 341.967 114.493 C 356.199 116.690 369.440 107.712 376.438 98.775"/>
  <path fill="#05668d" d="M 400.183 127.231 C 399.323 121.035 394.504 117.765 387.790 117.765 C 377.464 117.765 373.505 126.886 373.505 136.009 C 373.505 145.131 377.464 154.253 387.790 154.253 C 395.278 154.253 399.580 149.950 400.183 142.894 L 416.189 142.894 C 415.329 158.728 403.711 168.023 388.135 168.023 C 369.546 168.023 357.499 153.823 357.499 136.009 C 357.499 118.194 369.546 103.995 388.135 103.995 C 401.387 103.995 415.760 112.429 416.189 127.231 Z"/>
  <path fill="#05668d" d="M 419.059 105.286 L 435.496 105.286 L 456.838 143.151 L 457.010 143.151 L 457.010 105.286 L 472.070 105.286 L 472.070 166.731 L 455.633 166.731 L 434.291 128.435 L 434.119 128.435 L 434.119 166.731 L 419.059 166.731 Z"/>
  <path fill="#05668d" d="M 494.630 133.857 L 505.388 133.857 C 510.379 133.857 513.994 131.793 513.994 126.197 C 513.994 120.431 510.293 118.108 505.388 118.108 L 494.630 118.108 Z M 478.624 105.286 L 507.797 105.286 C 519.244 105.286 530.000 110.536 530.000 125.079 C 530.000 140.310 521.308 146.249 507.797 146.249 L 494.630 146.249 L 494.630 166.731 L 478.624 166.731 Z"/>
</svg>